<?xml version="1.0" encoding="UTF-8"?>
<svg xmlns="http://www.w3.org/2000/svg" viewBox="0 0 240 240" role="img" aria-hidden="true">
  <g stroke="#151515" stroke-width="8" stroke-linecap="round" stroke-linejoin="round">
    <g transform="translate(24 28) scale(.8)">
        <ellipse cx="120" cy="137" rx="58" ry="44" fill="#ff7952"/>
        <path d="M76 121 L50 96 M164 121 L190 96 M75 151 L48 168 M165 151 L192 168" fill="none"/>
        <path d="M52 96 C29 83 27 56 51 49 C72 43 82 62 73 77 C66 88 55 91 52 96Z" fill="#ffe337"/>
        <path d="M188 96 C211 83 213 56 189 49 C168 43 158 62 167 77 C174 88 185 91 188 96Z" fill="#ffe337"/>
        <path d="M97 105 V88 M143 105 V88" fill="none"/>
        
  <circle cx="96" cy="85" r="11" fill="#ffffff"/>
  <circle cx="97" cy="86" r="4" fill="#151515" stroke="none"/>
  <circle cx="94" cy="82" r="2.2" fill="#ffffff" stroke="none"/>
  <circle cx="144" cy="85" r="11" fill="#ffffff"/>
  <circle cx="145" cy="86" r="4" fill="#151515" stroke="none"/>
  <circle cx="142" cy="82" r="2.2" fill="#ffffff" stroke="none"/>
        <path d="M96 146 Q120 161 145 145" fill="none"/>
      </g>
  </g>
</svg>